<svg width="24" height="24" viewBox="0 0 24 24" fill="none" xmlns="http://www.w3.org/2000/svg">
<path d="M20.4683 6.71327C19.8321 6.99468 19.1574 7.1795 18.4666 7.26161C19.1947 6.82613 19.7397 6.14078 19.9999 5.33327C19.3166 5.73994 18.5674 6.02494 17.7866 6.17911C17.2621 5.61792 16.5669 5.24574 15.809 5.12043C15.0512 4.99511 14.2732 5.12368 13.596 5.48615C12.9187 5.84862 12.3802 6.42468 12.0642 7.12477C11.7481 7.82486 11.6722 8.60976 11.8483 9.35744C10.4625 9.28798 9.10686 8.92787 7.86933 8.30049C6.63179 7.67311 5.54003 6.79248 4.66492 5.71577C4.35516 6.24781 4.19238 6.85263 4.19326 7.46827C4.19326 8.6766 4.80826 9.74411 5.74326 10.3691C5.18993 10.3517 4.64878 10.2023 4.16492 9.93327V9.9766C4.16509 10.7814 4.44356 11.5613 4.95313 12.1842C5.46269 12.807 6.17199 13.2345 6.96075 13.3941C6.4471 13.5333 5.90851 13.5538 5.38576 13.4541C5.60814 14.1468 6.04159 14.7526 6.62541 15.1867C7.20924 15.6208 7.9142 15.8614 8.64159 15.8749C7.91866 16.4427 7.0909 16.8624 6.20566 17.1101C5.32041 17.3577 4.39503 17.4285 3.48242 17.3183C5.0755 18.3428 6.93 18.8867 8.82409 18.8849C15.2349 18.8849 18.7408 13.5741 18.7408 8.96827C18.7408 8.81827 18.7366 8.66661 18.7299 8.51827C19.4123 8.02508 20.0013 7.41412 20.4691 6.71411L20.4683 6.71327Z" fill="#000055"/>
</svg>
