<svg width="20" height="20" viewBox="0 0 20 20" fill="none" xmlns="http://www.w3.org/2000/svg">
<path d="M6.6665 9.1665H14.2791C15.4999 9.1665 16.1103 9.1665 16.4789 9.77925C16.8475 10.392 16.6304 10.7826 16.1963 11.5639C15.3346 13.1148 13.6628 14.1665 11.7416 14.1665C10.4545 14.1665 9.27925 13.6944 8.38467 12.9165" stroke="#526360" stroke-width="1.5" stroke-linecap="round" stroke-linejoin="round"/>
<path d="M6.66683 9.1665V3.33317C6.66683 2.5475 6.66683 2.15466 6.42275 1.91058C6.17867 1.6665 5.78584 1.6665 5.00016 1.6665C4.21449 1.6665 3.82165 1.6665 3.57757 1.91058C3.3335 2.15466 3.3335 2.5475 3.3335 3.33317V9.1665C3.3335 9.95217 3.3335 10.345 3.57757 10.5891C3.82165 10.8332 4.21449 10.8332 5.00016 10.8332C5.78584 10.8332 6.17867 10.8332 6.42275 10.5891C6.66683 10.345 6.66683 9.95217 6.66683 9.1665Z" stroke="#526360" stroke-width="1.5" stroke-linecap="round" stroke-linejoin="round"/>
<path d="M5.8335 5.8335H8.3335" stroke="#526360" stroke-width="1.5" stroke-linecap="round" stroke-linejoin="round"/>
<path d="M13.3335 14.1668C12.5002 15.0002 13.3335 17.5002 14.9998 18.3335H3.3335C4.16683 17.5002 5.5835 14.8335 4.5835 10.8335" stroke="#526360" stroke-width="1.5" stroke-linecap="round" stroke-linejoin="round"/>
</svg>
