<svg width="24" height="24" viewBox="0 0 24 24" fill="none" xmlns="http://www.w3.org/2000/svg">
<path d="M19.9074 21.0962C22.7427 18.4499 24.0028 14.0395 23.2468 9.81812H11.9688V14.4806H18.3953C18.1433 15.9927 17.2612 17.2528 16.0011 18.0719L19.9074 21.0962Z" fill="#4285F4"/>
<path d="M1.25757 17.3788C1.36081 17.582 1.46967 17.7822 1.58413 17.9793C1.69868 18.1765 1.81867 18.3702 1.94409 18.5606C2.0696 18.7509 2.20028 18.9376 2.3363 19.1205C2.47232 19.3035 2.61335 19.4824 2.75954 19.6574C2.90564 19.8323 3.05657 20.0031 3.2124 20.1695C3.36814 20.3359 3.52853 20.4978 3.69348 20.6552C3.85843 20.8125 4.02767 20.9651 4.20121 21.113C4.37474 21.2608 4.55231 21.4035 4.734 21.5413C4.9156 21.6791 5.10097 21.8116 5.2901 21.9389C5.47924 22.0661 5.6718 22.1879 5.86786 22.3043C6.06383 22.4207 6.26296 22.5315 6.46525 22.6367C6.66753 22.7418 6.87262 22.8412 7.08051 22.9347C7.28841 23.0282 7.49875 23.1158 7.71164 23.1974C7.92444 23.2791 8.13944 23.3547 8.35653 23.4242C8.57363 23.4937 8.79257 23.557 9.01326 23.6141C9.23394 23.6712 9.45604 23.7221 9.67962 23.7667C9.9032 23.8112 10.1278 23.8494 10.3536 23.8813C10.5793 23.9131 10.8058 23.9387 11.0329 23.9577C11.2601 23.9767 11.4876 23.9894 11.7155 23.9955C11.9434 24.0018 12.1713 24.0015 12.3991 23.9948C12.627 23.9882 12.8545 23.975 13.0816 23.9555C13.3087 23.9359 13.5351 23.91 13.7608 23.8777C13.9865 23.8453 14.211 23.8066 14.4345 23.7615C14.658 23.7165 14.88 23.6652 15.1005 23.6076C15.3211 23.55 15.5399 23.4862 15.7569 23.4163C15.9738 23.3463 16.1886 23.2703 16.4014 23.1881C16.614 23.106 16.8242 23.018 17.0319 22.924C17.2396 22.83 17.4444 22.7303 17.6464 22.6247C17.8486 22.5192 18.0474 22.4079 18.2432 22.2911C18.4389 22.1743 18.6312 22.052 18.8201 21.9244C19.009 21.7967 19.1941 21.6637 19.3754 21.5256C19.5567 21.3875 19.7341 21.2443 19.9072 21.0962L16.0009 18.0719C12.6616 20.277 7.11715 19.458 5.22691 14.2915L1.25757 17.3788Z" fill="#34A853"/>
<path d="M5.22698 14.2914C4.72294 12.7163 4.72294 11.2672 5.22698 9.69202L1.25764 6.60474C-0.19148 9.50306 -0.632509 13.5984 1.25764 17.3787L5.22698 14.2914Z" fill="#FBBC02"/>
<path d="M5.22691 9.69205C6.6131 5.3447 12.5356 2.82447 16.505 6.54175L19.9703 3.13947C15.0558 -1.5859 5.47898 -1.39694 1.25757 6.60477L5.22691 9.69205Z" fill="#EA4335"/>
</svg>
