<svg width="112" height="48" viewBox="0 0 112 48" fill="none" xmlns="http://www.w3.org/2000/svg">
<rect x="0.5" y="0.5" width="111" height="47" rx="5.5" fill="white"/>
<rect x="0.5" y="0.5" width="111" height="47" rx="5.5" stroke="#8F9695"/>
<path d="M28.3332 28.5833H11.6665" stroke="#526360" stroke-width="1.5" stroke-linecap="round" stroke-linejoin="round"/>
<path d="M28.3332 31.5V27.3333C28.3332 25.762 28.3332 24.9763 27.845 24.4882C27.3568 24 26.5712 24 24.9998 24H14.9998C13.4285 24 12.6428 24 12.1547 24.4882C11.6665 24.9763 11.6665 25.762 11.6665 27.3333V31.5" stroke="#526360" stroke-width="1.5" stroke-linecap="round" stroke-linejoin="round"/>
<path d="M23.3332 24V22.8482C23.3332 22.4252 23.2569 22.2838 22.8662 22.1171C22.0524 21.7699 21.0647 21.5 19.9998 21.5C18.935 21.5 17.9472 21.7699 17.1335 22.1171C16.7428 22.2838 16.6665 22.4252 16.6665 22.8482V24" stroke="#526360" stroke-width="1.5" stroke-linecap="round"/>
<path d="M26.6668 24V20.1338C26.6668 19.5574 26.6668 19.2693 26.5245 18.9971C26.3822 18.725 26.1794 18.5841 25.7738 18.3024C24.1386 17.1665 22.1478 16.5 20.0002 16.5C17.8525 16.5 15.8618 17.1665 14.2265 18.3024C13.8209 18.5841 13.6181 18.725 13.4758 18.9971C13.3335 19.2693 13.3335 19.5574 13.3335 20.1338V24" stroke="#526360" stroke-width="1.5" stroke-linecap="round"/>
<path d="M97 21.5C97 21.5 93.3176 26.5 92 26.5C90.6823 26.5 87 21.5 87 21.5" stroke="#526360" stroke-width="1.5" stroke-linecap="round" stroke-linejoin="round"/>
</svg>
