<svg width="250" height="48" viewBox="0 0 250 48" fill="none" xmlns="http://www.w3.org/2000/svg">
<rect x="0.5" y="0.5" width="249" height="47" rx="5.5" fill="white"/>
<rect x="0.5" y="0.5" width="249" height="47" rx="5.5" stroke="#8F9695"/>
<path d="M23.3335 25.6667C23.3335 26.3571 23.8932 26.9167 24.5835 26.9167C25.2738 26.9167 25.8335 26.3571 25.8335 25.6667C25.8335 24.9764 25.2738 24.4167 24.5835 24.4167C23.8932 24.4167 23.3335 24.9764 23.3335 25.6667Z" stroke="#526360" stroke-width="1.5"/>
<path d="M18.3332 19.8333H23.3332C25.6902 19.8333 26.8687 19.8333 27.6009 20.5656C28.3332 21.2978 28.3332 22.4763 28.3332 24.8333V26.5C28.3332 28.857 28.3332 30.0355 27.6009 30.7677C26.8687 31.5 25.6902 31.5 23.3332 31.5H18.3332C15.1905 31.5 13.6191 31.5 12.6428 30.5237C11.6665 29.5474 11.6665 27.976 11.6665 24.8333V23.1667C11.6665 20.024 11.6665 18.4526 12.6428 17.4763C13.6191 16.5 15.1905 16.5 18.3332 16.5H21.6665C22.4415 16.5 22.829 16.5 23.1469 16.5852C24.0096 16.8164 24.6835 17.4902 24.9147 18.3529C24.9998 18.6709 24.9998 19.0584 24.9998 19.8333" stroke="#526360" stroke-width="1.5" stroke-linecap="round"/>
<path d="M235 21.5C235 21.5 231.318 26.5 230 26.5C228.682 26.5 225 21.5 225 21.5" stroke="#526360" stroke-width="1.5" stroke-linecap="round" stroke-linejoin="round"/>
</svg>
