<svg width="24" height="24" viewBox="0 0 24 24" fill="none" xmlns="http://www.w3.org/2000/svg">
<path d="M12.0003 3.6665C14.2645 3.6665 14.547 3.67484 15.4353 3.7165C16.3228 3.75817 16.927 3.89734 17.4587 4.104C18.0087 4.31567 18.472 4.60234 18.9353 5.06484C19.3591 5.48142 19.687 5.98533 19.8962 6.5415C20.102 7.07234 20.242 7.67734 20.2837 8.56484C20.3228 9.45317 20.3337 9.73567 20.3337 11.9998C20.3337 14.264 20.3253 14.5465 20.2837 15.4348C20.242 16.3223 20.102 16.9265 19.8962 17.4582C19.6876 18.0147 19.3596 18.5187 18.9353 18.9348C18.5186 19.3584 18.0148 19.6863 17.4587 19.8957C16.9278 20.1015 16.3228 20.2415 15.4353 20.2832C14.547 20.3223 14.2645 20.3332 12.0003 20.3332C9.73616 20.3332 9.45366 20.3248 8.56533 20.2832C7.67783 20.2415 7.07366 20.1015 6.54199 19.8957C5.9856 19.6869 5.4816 19.359 5.06533 18.9348C4.6415 18.5183 4.3136 18.0144 4.10449 17.4582C3.89783 16.9273 3.75866 16.3223 3.71699 15.4348C3.67783 14.5465 3.66699 14.264 3.66699 11.9998C3.66699 9.73567 3.67533 9.45317 3.71699 8.56484C3.75866 7.6765 3.89783 7.07317 4.10449 6.5415C4.31302 5.98499 4.641 5.48094 5.06533 5.06484C5.48172 4.64086 5.98568 4.31295 6.54199 4.104C7.07366 3.89734 7.67699 3.75817 8.56533 3.7165C9.45366 3.67734 9.73616 3.6665 12.0003 3.6665ZM12.0003 7.83317C10.8953 7.83317 9.83545 8.27216 9.05405 9.05356C8.27265 9.83496 7.83366 10.8948 7.83366 11.9998C7.83366 13.1049 8.27265 14.1647 9.05405 14.9461C9.83545 15.7275 10.8953 16.1665 12.0003 16.1665C13.1054 16.1665 14.1652 15.7275 14.9466 14.9461C15.728 14.1647 16.167 13.1049 16.167 11.9998C16.167 10.8948 15.728 9.83496 14.9466 9.05356C14.1652 8.27216 13.1054 7.83317 12.0003 7.83317ZM17.417 7.62484C17.417 7.34857 17.3072 7.08362 17.1119 6.88827C16.9165 6.69292 16.6516 6.58317 16.3753 6.58317C16.0991 6.58317 15.8341 6.69292 15.6388 6.88827C15.4434 7.08362 15.3337 7.34857 15.3337 7.62484C15.3337 7.9011 15.4434 8.16606 15.6388 8.36141C15.8341 8.55676 16.0991 8.6665 16.3753 8.6665C16.6516 8.6665 16.9165 8.55676 17.1119 8.36141C17.3072 8.16606 17.417 7.9011 17.417 7.62484ZM12.0003 9.49984C12.6634 9.49984 13.2993 9.76323 13.7681 10.2321C14.2369 10.7009 14.5003 11.3368 14.5003 11.9998C14.5003 12.6629 14.2369 13.2988 13.7681 13.7676C13.2993 14.2364 12.6634 14.4998 12.0003 14.4998C11.3373 14.4998 10.7014 14.2364 10.2326 13.7676C9.76372 13.2988 9.50033 12.6629 9.50033 11.9998C9.50033 11.3368 9.76372 10.7009 10.2326 10.2321C10.7014 9.76323 11.3373 9.49984 12.0003 9.49984Z" fill="#000055"/>
</svg>
