<svg width="14" height="14" viewBox="0 0 14 14" fill="none" xmlns="http://www.w3.org/2000/svg">
<path d="M2 0C0.89543 0 0 0.895431 0 2V12C0 13.1046 0.895431 14 2 14H12C13.1046 14 14 13.1046 14 12V2C14 0.89543 13.1046 0 12 0H2ZM12.6151 7.23488L10.6099 9.24006C10.5448 9.30514 10.4598 9.33747 10.3753 9.33747C10.2902 9.33747 10.2052 9.30514 10.1402 9.24006C10.0104 9.11034 10.0104 8.90048 10.1402 8.77075C10.671 8.23992 10.295 7.33228 9.54432 7.33228H8.5757C7.88873 7.33228 7.33184 7.88917 7.33184 8.57614V9.54477C7.33184 10.2955 8.23948 10.6714 8.77031 10.1406C8.90003 10.0109 9.11034 10.0109 9.24006 10.1406C9.36979 10.2703 9.36979 10.4802 9.24006 10.6099L7.23488 12.6155C7.17245 12.6775 7.08788 12.7125 6.99978 12.7125C6.91167 12.7125 6.82755 12.6775 6.76512 12.6155L4.75994 10.6099C4.63021 10.4802 4.63021 10.2703 4.75994 10.1406C4.88966 10.0109 5.09997 10.0109 5.22925 10.1406C5.76008 10.6714 6.66772 10.2955 6.66772 9.54477V8.57614C6.66772 7.88917 6.11083 7.33228 5.42386 7.33228H4.45523C3.70452 7.33228 3.32856 8.23992 3.8594 8.77075C3.98912 8.90048 3.98912 9.11034 3.8594 9.24006C3.79476 9.30514 3.70975 9.33747 3.62474 9.33747C3.53974 9.33747 3.45473 9.30514 3.39009 9.24006L1.38446 7.23488C1.32248 7.17245 1.2875 7.08833 1.2875 7.00022C1.2875 6.91211 1.32248 6.82755 1.38446 6.76512L3.39009 4.75994C3.51981 4.63021 3.72967 4.63021 3.8594 4.75994C3.98912 4.88966 3.98912 5.09997 3.8594 5.22969C3.32856 5.76052 3.70452 6.66816 4.45523 6.66816H5.42386C6.11083 6.66816 6.66772 6.11127 6.66772 5.42431V4.45568C6.66772 3.70497 5.76008 3.32901 5.22925 3.85984C5.09952 3.98956 4.88966 3.98956 4.75994 3.85984C4.63021 3.73012 4.63021 3.51981 4.75994 3.39009L6.76512 1.3849C6.89485 1.25518 7.10515 1.25518 7.23488 1.3849L9.24006 3.39009C9.36979 3.51981 9.36979 3.73012 9.24006 3.85984C9.17498 3.92448 9.08997 3.9568 9.00541 3.9568C8.9204 3.9568 8.83539 3.92448 8.77031 3.85984C8.23948 3.32901 7.33184 3.70496 7.33184 4.45567V5.4243C7.33184 6.11127 7.88873 6.66816 8.5757 6.66816H9.54432C10.295 6.66816 10.671 5.76052 10.1402 5.22969C10.0104 5.09997 10.0104 4.88966 10.1402 4.75994C10.2699 4.63021 10.4802 4.63021 10.6099 4.75994L12.6151 6.76512C12.7448 6.89485 12.7448 7.10515 12.6151 7.23488Z" fill="#000080"/>
</svg>
