<svg width="20" height="21" viewBox="0 0 20 21" fill="none" xmlns="http://www.w3.org/2000/svg">
<path d="M19.556 8.74293L18.1959 7.16285C17.9359 6.86283 17.7259 6.30281 17.7259 5.90279V4.20271C17.7259 3.14265 16.8558 2.27261 15.7958 2.27261H14.0957C13.7057 2.27261 13.1356 2.0626 12.8356 1.80259L11.2555 0.442522C10.5655 -0.147507 9.43546 -0.147507 8.73543 0.442522L7.16535 1.81259C6.86533 2.0626 6.29531 2.27261 5.90529 2.27261H4.1752C3.11515 2.27261 2.24511 3.14265 2.24511 4.20271V5.91279C2.24511 6.30281 2.0351 6.86283 1.78509 7.16285L0.435021 8.75293C-0.145007 9.44296 -0.145007 10.563 0.435021 11.253L1.78509 12.8431C2.0351 13.1431 2.24511 13.7032 2.24511 14.0932V15.8033C2.24511 16.8633 3.11515 17.7334 4.1752 17.7334H5.90529C6.29531 17.7334 6.86533 17.9434 7.16535 18.2034L8.74543 19.5635C9.43546 20.1535 10.5655 20.1535 11.2656 19.5635L12.8456 18.2034C13.1456 17.9434 13.7057 17.7334 14.1057 17.7334H15.8058C16.8658 17.7334 17.7359 16.8633 17.7359 15.8033V14.1032C17.7359 13.7132 17.9459 13.1431 18.2059 12.8431L19.566 11.263C20.146 10.573 20.146 9.43296 19.556 8.74293ZM14.1557 8.1129L9.32546 12.9431C9.18545 13.0831 8.99544 13.1631 8.79543 13.1631C8.59542 13.1631 8.40541 13.0831 8.2654 12.9431L5.84529 10.523C5.55527 10.233 5.55527 9.75298 5.84529 9.46296C6.1353 9.17295 6.61532 9.17295 6.90534 9.46296L8.79543 11.3531L13.0956 7.05284C13.3857 6.76283 13.8657 6.76283 14.1557 7.05284C14.4457 7.34286 14.4457 7.82288 14.1557 8.1129Z" fill="#000055"/>
</svg>
