<svg width="112" height="48" viewBox="0 0 112 48" fill="none" xmlns="http://www.w3.org/2000/svg">
<rect x="0.5" y="0.5" width="111" height="47" rx="5.5" fill="white"/>
<rect x="0.5" y="0.5" width="111" height="47" rx="5.5" stroke="#8F9695"/>
<path d="M16.6665 23.1667H24.2791C25.4999 23.1667 26.1103 23.1667 26.4789 23.7795C26.8475 24.3922 26.6304 24.7828 26.1963 25.5642C25.3346 27.1151 23.6628 28.1667 21.7416 28.1667C20.4545 28.1667 19.2793 27.6947 18.3847 26.9167" stroke="#526360" stroke-width="1.5" stroke-linecap="round" stroke-linejoin="round"/>
<path d="M16.6668 23.1667V17.3334C16.6668 16.5477 16.6668 16.1549 16.4228 15.9108C16.1787 15.6667 15.7858 15.6667 15.0002 15.6667C14.2145 15.6667 13.8217 15.6667 13.5776 15.9108C13.3335 16.1549 13.3335 16.5477 13.3335 17.3334V23.1667C13.3335 23.9524 13.3335 24.3452 13.5776 24.5893C13.8217 24.8334 14.2145 24.8334 15.0002 24.8334C15.7858 24.8334 16.1787 24.8334 16.4228 24.5893C16.6668 24.3452 16.6668 23.9524 16.6668 23.1667Z" stroke="#526360" stroke-width="1.5" stroke-linecap="round" stroke-linejoin="round"/>
<path d="M15.8335 19.8333H18.3335" stroke="#526360" stroke-width="1.5" stroke-linecap="round" stroke-linejoin="round"/>
<path d="M23.3335 28.1666C22.5002 28.9999 23.3335 31.4999 24.9998 32.3333H13.3335C14.1668 31.4999 15.5835 28.8333 14.5835 24.8333" stroke="#526360" stroke-width="1.5" stroke-linecap="round" stroke-linejoin="round"/>
<path d="M97 21.5C97 21.5 93.3176 26.5 92 26.5C90.6823 26.5 87 21.5 87 21.5" stroke="#526360" stroke-width="1.5" stroke-linecap="round" stroke-linejoin="round"/>
</svg>
