<svg width="124" height="124" viewBox="0 0 124 124" fill="none" xmlns="http://www.w3.org/2000/svg">
<path d="M124 64.9062C124 69.2414 122.959 73.2617 120.876 76.943C118.793 80.6242 116.008 83.5062 112.496 85.5164C112.593 86.1703 112.641 87.1875 112.641 88.568C112.641 95.1313 110.438 100.702 106.078 105.303C101.695 109.929 96.4148 112.23 90.2391 112.23C87.4781 112.23 84.8383 111.721 82.3438 110.704C80.4062 114.676 77.6211 117.873 73.9641 120.319C70.3312 122.789 66.3352 124 62 124C57.568 124 53.5477 122.813 49.9633 120.391C46.3547 117.994 43.5938 114.773 41.6562 110.704C39.1617 111.721 36.5461 112.23 33.7609 112.23C27.5852 112.23 22.2812 109.929 17.8492 105.303C13.4172 100.702 11.2133 95.107 11.2133 88.568C11.2133 87.8414 11.3102 86.8242 11.4797 85.5164C7.96797 83.482 5.18281 80.6242 3.1 76.943C1.04141 73.2617 0 69.2414 0 64.9062C0 60.3047 1.1625 56.0664 3.46328 52.2398C5.76406 48.4133 8.86406 45.5797 12.7391 43.7391C11.7219 40.9781 11.2133 38.193 11.2133 35.432C11.2133 28.893 13.4172 23.2984 17.8492 18.6969C22.2812 14.0953 27.5852 11.7703 33.7609 11.7703C36.5219 11.7703 39.1617 12.2789 41.6562 13.2961C43.5938 9.32422 46.3789 6.12734 50.0359 3.68125C53.6688 1.23516 57.6648 0 62 0C66.3352 0 70.3312 1.23516 73.9641 3.65703C77.5969 6.10313 80.4062 9.3 82.3438 13.2719C84.8383 12.2547 87.4539 11.7461 90.2391 11.7461C96.4148 11.7461 101.695 14.0469 106.078 18.6727C110.462 23.2984 112.641 28.8687 112.641 35.4078C112.641 38.4594 112.181 41.2203 111.261 43.7148C115.136 45.5555 118.236 48.3891 120.537 52.2156C122.838 56.0664 124 60.3047 124 64.9062ZM59.3602 83.5789L84.9594 45.2406C85.6133 44.2234 85.807 43.1094 85.5891 41.9227C85.3469 40.7359 84.7414 39.7914 83.7242 39.1617C82.707 38.5078 81.593 38.2898 80.4062 38.4594C79.1953 38.6531 78.2266 39.2344 77.5 40.2516L54.9523 74.1578L44.5625 63.7922C43.6422 62.8719 42.5766 62.4359 41.3898 62.4844C40.1789 62.5328 39.1375 62.9688 38.2172 63.7922C37.3937 64.6156 36.982 65.657 36.982 66.9164C36.982 68.1516 37.3937 69.193 38.2172 70.0406L52.482 84.3055L53.1844 84.8625C54.0078 85.4195 54.8555 85.6859 55.6789 85.6859C57.3016 85.6617 58.5367 84.9836 59.3602 83.5789Z" fill="#000080"/>
</svg>
