<svg width="37" height="37" viewBox="0 0 37 37" fill="none" xmlns="http://www.w3.org/2000/svg">
<path opacity="0.2" d="M18.4998 36.9997C28.717 36.9997 36.9997 28.717 36.9997 18.4998C36.9997 8.28266 28.717 0 18.4998 0C8.28266 0 0 8.28266 0 18.4998C0 28.717 8.28266 36.9997 18.4998 36.9997Z" fill="#000080"/>
<path d="M15.8725 25.1226C15.5025 25.1226 15.151 24.9746 14.892 24.7156L9.65656 19.4802C9.12006 18.9437 9.12006 18.0557 9.65656 17.5192C10.1931 16.9827 11.081 16.9827 11.6175 17.5192L15.8725 21.7742L25.3814 12.2652C25.9179 11.7287 26.8059 11.7287 27.3424 12.2652C27.8789 12.8017 27.8789 13.6897 27.3424 14.2262L16.853 24.7156C16.594 24.9746 16.2425 25.1226 15.8725 25.1226Z" fill="#000080"/>
</svg>
